<?xml version="1.0" encoding="utf-8"?>
<!-- Generator: Adobe Illustrator 23.0.1, SVG Export Plug-In . SVG Version: 6.00 Build 0)  -->
<svg version="1.1" id="Layer_1" xmlns="http://www.w3.org/2000/svg" xmlns:xlink="http://www.w3.org/1999/xlink" x="0px" y="0px"
	 viewBox="0 0 168 40" style="enable-background:new 0 0 168 40;" xml:space="preserve">
<style type="text/css">
	.st0{fill:#1C1919;stroke:#FFFFFF;stroke-miterlimit:10;}
	.st1{fill:#FF0000;stroke:#FFFFFF;stroke-miterlimit:10;}
	.st2{fill:#030100;stroke:#FFFFFF;stroke-miterlimit:10;}
	.st3{fill:#FFFFFF;}
</style>
<g>
	<rect x="48.9" y="6.1" transform="matrix(0.7071 -0.7071 0.7071 0.7071 4.2167 50.4168)" class="st0" width="28.1" height="28.1"/>
	
		<rect x="27.2" y="5.8" transform="matrix(0.7071 -0.7071 0.7071 0.7071 -1.9602 35.0309)" class="st1" width="28.1" height="28.1"/>
	<rect x="5.8" y="5.8" transform="matrix(0.7071 -0.7071 0.7071 0.7071 -8.2353 19.8817)" class="st2" width="28.1" height="28.1"/>
</g>
<g>
	<path class="st3" d="M95,9.1c-0.3-0.3-0.6-0.6-1-0.7c-0.4-0.2-0.8-0.3-1.3-0.3c-0.5,0-1,0.1-1.4,0.3c-0.4,0.2-0.8,0.5-1.1,0.8
		c-0.3,0.3-0.6,0.8-0.7,1.2c-0.2,0.5-0.3,1-0.3,1.6c0,0.6,0.1,1.1,0.3,1.6c0.2,0.5,0.4,0.9,0.7,1.2c0.3,0.3,0.7,0.6,1.1,0.8
		c0.4,0.2,0.9,0.3,1.3,0.3c0.5,0,1-0.1,1.5-0.3c0.4-0.2,0.8-0.5,1-1l2.2,1.7c-0.5,0.7-1.2,1.2-1.9,1.6c-0.8,0.3-1.6,0.5-2.4,0.5
		c-0.9,0-1.8-0.1-2.6-0.4c-0.8-0.3-1.5-0.7-2.1-1.3c-0.6-0.6-1-1.2-1.4-2c-0.3-0.8-0.5-1.7-0.5-2.6s0.2-1.8,0.5-2.6
		c0.3-0.8,0.8-1.5,1.4-2c0.6-0.6,1.3-1,2.1-1.3C91.1,5.8,92,5.6,93,5.6c0.3,0,0.7,0,1.1,0.1c0.4,0.1,0.7,0.2,1.1,0.3
		c0.4,0.1,0.7,0.3,1,0.5s0.6,0.5,0.9,0.8L95,9.1z"/>
	<path class="st3" d="M98.1,13.9c0-0.7,0.1-1.3,0.4-1.8c0.2-0.5,0.6-1,1-1.4c0.4-0.4,0.9-0.7,1.5-0.9c0.6-0.2,1.2-0.3,1.8-0.3
		c0.6,0,1.2,0.1,1.8,0.3c0.6,0.2,1.1,0.5,1.5,0.9c0.4,0.4,0.7,0.8,1,1.4c0.2,0.5,0.4,1.1,0.4,1.8c0,0.7-0.1,1.3-0.4,1.8
		c-0.2,0.5-0.6,1-1,1.4c-0.4,0.4-0.9,0.7-1.5,0.9c-0.6,0.2-1.2,0.3-1.8,0.3c-0.6,0-1.2-0.1-1.8-0.3c-0.6-0.2-1.1-0.5-1.5-0.9
		c-0.4-0.4-0.7-0.8-1-1.4C98.3,15.1,98.1,14.5,98.1,13.9z M100.7,13.9c0,0.6,0.2,1.1,0.5,1.5c0.4,0.4,0.9,0.6,1.5,0.6
		c0.6,0,1.2-0.2,1.5-0.6c0.4-0.4,0.5-0.9,0.5-1.5c0-0.6-0.2-1.1-0.5-1.5c-0.4-0.4-0.9-0.6-1.5-0.6c-0.6,0-1.2,0.2-1.5,0.6
		C100.9,12.7,100.7,13.2,100.7,13.9z"/>
	<path class="st3" d="M108.9,9.7h2.5v1.1h0c0.1-0.2,0.2-0.3,0.3-0.5c0.1-0.2,0.3-0.3,0.5-0.4c0.2-0.1,0.4-0.2,0.7-0.3
		c0.3-0.1,0.5-0.1,0.9-0.1c0.6,0,1.1,0.1,1.5,0.4c0.5,0.2,0.8,0.6,1,1.1c0.3-0.5,0.7-0.9,1.1-1.1c0.4-0.2,0.9-0.3,1.6-0.3
		c0.6,0,1,0.1,1.4,0.3c0.4,0.2,0.7,0.4,0.9,0.8c0.2,0.3,0.4,0.7,0.5,1.1c0.1,0.4,0.1,0.9,0.1,1.4V18h-2.6v-4.8c0-0.4-0.1-0.7-0.2-1
		c-0.2-0.3-0.5-0.4-0.9-0.4c-0.3,0-0.5,0-0.7,0.1c-0.2,0.1-0.4,0.2-0.5,0.4c-0.1,0.2-0.2,0.4-0.3,0.6c-0.1,0.2-0.1,0.5-0.1,0.7V18
		h-2.6v-4.4c0-0.1,0-0.3,0-0.5c0-0.2-0.1-0.4-0.1-0.6c-0.1-0.2-0.2-0.4-0.3-0.5s-0.4-0.2-0.7-0.2c-0.3,0-0.6,0.1-0.8,0.2
		c-0.2,0.1-0.4,0.3-0.5,0.5c-0.1,0.2-0.2,0.4-0.2,0.7c0,0.3-0.1,0.5-0.1,0.8V18h-2.6V9.7z"/>
	<path class="st3" d="M124,9.7h2.4v1.1h0c0.1-0.1,0.2-0.3,0.4-0.5c0.2-0.2,0.4-0.3,0.6-0.4c0.2-0.1,0.5-0.2,0.7-0.3
		c0.3-0.1,0.5-0.1,0.8-0.1c0.6,0,1.2,0.1,1.7,0.3c0.5,0.2,0.9,0.5,1.3,0.9c0.4,0.4,0.6,0.8,0.8,1.4c0.2,0.5,0.3,1.1,0.3,1.7
		c0,0.6-0.1,1.1-0.3,1.7c-0.2,0.5-0.4,1-0.8,1.4c-0.3,0.4-0.7,0.7-1.2,1c-0.5,0.2-1,0.4-1.6,0.4c-0.5,0-1-0.1-1.5-0.2
		c-0.5-0.2-0.8-0.4-1.1-0.8h0v4.8H124V9.7z M126.3,13.9c0,0.6,0.2,1.1,0.5,1.5c0.4,0.4,0.9,0.6,1.5,0.6s1.2-0.2,1.5-0.6
		c0.4-0.4,0.5-0.9,0.5-1.5c0-0.6-0.2-1.1-0.5-1.5c-0.4-0.4-0.9-0.6-1.5-0.6s-1.2,0.2-1.5,0.6C126.5,12.7,126.3,13.2,126.3,13.9z"/>
	<path class="st3" d="M139.7,17L139.7,17c-0.3,0.4-0.7,0.8-1.2,1c-0.5,0.2-1,0.3-1.5,0.3c-0.4,0-0.8-0.1-1.1-0.2
		c-0.4-0.1-0.7-0.3-0.9-0.5c-0.3-0.2-0.5-0.5-0.6-0.8c-0.2-0.3-0.2-0.7-0.2-1.1c0-0.5,0.1-0.9,0.3-1.2c0.2-0.3,0.4-0.6,0.7-0.8
		s0.6-0.4,1-0.5c0.4-0.1,0.8-0.2,1.2-0.3c0.4-0.1,0.8-0.1,1.2-0.1c0.4,0,0.8,0,1.2,0c0-0.5-0.2-0.8-0.5-1.1
		c-0.3-0.3-0.7-0.4-1.2-0.4c-0.4,0-0.8,0.1-1.2,0.3c-0.3,0.2-0.7,0.4-0.9,0.7l-1.4-1.4c0.5-0.4,1-0.8,1.7-1c0.6-0.2,1.3-0.3,2-0.3
		c0.8,0,1.4,0.1,1.9,0.3s0.9,0.5,1.2,0.8c0.3,0.4,0.5,0.8,0.6,1.3s0.2,1.1,0.2,1.8V18h-2.4V17z M139,14.4c-0.2,0-0.4,0-0.7,0
		c-0.3,0-0.6,0.1-0.8,0.1c-0.3,0.1-0.5,0.2-0.7,0.4c-0.2,0.2-0.3,0.4-0.3,0.7c0,0.3,0.1,0.5,0.4,0.7c0.3,0.1,0.5,0.2,0.8,0.2
		c0.3,0,0.5,0,0.7-0.1c0.2-0.1,0.4-0.2,0.6-0.3c0.2-0.1,0.3-0.3,0.4-0.5c0.1-0.2,0.2-0.4,0.2-0.7v-0.5H139z"/>
	<path class="st3" d="M143.6,9.7h2.5v1.1h0c0.1-0.2,0.2-0.3,0.3-0.5c0.1-0.2,0.3-0.3,0.5-0.4c0.2-0.1,0.4-0.2,0.7-0.3
		c0.3-0.1,0.5-0.1,0.9-0.1c0.6,0,1.2,0.1,1.6,0.3c0.4,0.2,0.7,0.5,0.9,0.8c0.2,0.4,0.4,0.8,0.5,1.2c0.1,0.5,0.1,1,0.1,1.6V18h-2.6
		v-4.1c0-0.2,0-0.5,0-0.7c0-0.3-0.1-0.5-0.2-0.7c-0.1-0.2-0.2-0.4-0.4-0.5s-0.4-0.2-0.8-0.2c-0.3,0-0.6,0.1-0.8,0.2
		c-0.2,0.1-0.4,0.3-0.5,0.5c-0.1,0.2-0.2,0.4-0.2,0.7c0,0.3-0.1,0.5-0.1,0.8V18h-2.6V9.7z"/>
	<path class="st3" d="M158.2,19.4c-0.2,0.4-0.3,0.8-0.5,1.2c-0.2,0.3-0.4,0.6-0.6,0.9s-0.6,0.4-0.9,0.5c-0.4,0.1-0.9,0.2-1.5,0.2
		c-0.7,0-1.3-0.1-1.9-0.3l0.3-2.1c0.4,0.2,0.8,0.3,1.2,0.3c0.3,0,0.5,0,0.7-0.1c0.2-0.1,0.3-0.2,0.5-0.3s0.2-0.3,0.3-0.4
		c0.1-0.2,0.2-0.4,0.3-0.6l0.2-0.5l-3.6-8.4h2.8l2.1,5.5h0l1.8-5.5h2.6L158.2,19.4z"/>
	<path class="st3" d="M86.4,22.1H90l5.1,8.4h0v-8.4h2.7v12.1h-3.5l-5.3-8.6h0v8.6h-2.7V22.1z"/>
	<path class="st3" d="M105.2,33.1L105.2,33.1c-0.3,0.4-0.7,0.8-1.2,1c-0.5,0.2-1,0.3-1.5,0.3c-0.4,0-0.8-0.1-1.1-0.2
		c-0.4-0.1-0.7-0.3-0.9-0.5c-0.3-0.2-0.5-0.5-0.6-0.8c-0.2-0.3-0.2-0.7-0.2-1.1c0-0.5,0.1-0.9,0.3-1.2c0.2-0.3,0.4-0.6,0.7-0.8
		c0.3-0.2,0.6-0.4,1-0.5c0.4-0.1,0.8-0.2,1.2-0.3c0.4-0.1,0.8-0.1,1.2-0.1c0.4,0,0.8,0,1.2,0c0-0.5-0.2-0.8-0.5-1.1
		c-0.3-0.3-0.7-0.4-1.2-0.4c-0.4,0-0.8,0.1-1.2,0.3c-0.3,0.2-0.7,0.4-0.9,0.7l-1.4-1.4c0.5-0.4,1-0.8,1.7-1c0.6-0.2,1.3-0.3,2-0.3
		c0.8,0,1.4,0.1,1.9,0.3s0.9,0.5,1.2,0.8c0.3,0.4,0.5,0.8,0.6,1.3c0.1,0.5,0.2,1.1,0.2,1.8v4.2h-2.4V33.1z M104.6,30.6
		c-0.2,0-0.4,0-0.7,0c-0.3,0-0.6,0.1-0.8,0.1c-0.3,0.1-0.5,0.2-0.7,0.4c-0.2,0.2-0.3,0.4-0.3,0.7c0,0.3,0.1,0.5,0.4,0.7
		c0.3,0.1,0.5,0.2,0.8,0.2c0.3,0,0.5,0,0.7-0.1c0.2-0.1,0.4-0.2,0.6-0.3c0.2-0.1,0.3-0.3,0.4-0.5c0.1-0.2,0.2-0.4,0.2-0.7v-0.5
		H104.6z"/>
	<path class="st3" d="M109.2,25.9h2.5V27h0c0.1-0.2,0.2-0.3,0.3-0.5c0.1-0.2,0.3-0.3,0.5-0.4c0.2-0.1,0.4-0.2,0.7-0.3
		c0.3-0.1,0.5-0.1,0.9-0.1c0.6,0,1.1,0.1,1.5,0.4c0.5,0.2,0.8,0.6,1,1.1c0.3-0.5,0.7-0.9,1.1-1.1c0.4-0.2,0.9-0.3,1.6-0.3
		c0.6,0,1,0.1,1.4,0.3c0.4,0.2,0.7,0.4,0.9,0.8c0.2,0.3,0.4,0.7,0.5,1.1c0.1,0.4,0.1,0.9,0.1,1.4v4.9h-2.6v-4.8c0-0.4-0.1-0.7-0.2-1
		c-0.2-0.3-0.5-0.4-0.9-0.4c-0.3,0-0.5,0-0.7,0.1c-0.2,0.1-0.4,0.2-0.5,0.4c-0.1,0.2-0.2,0.4-0.3,0.6c-0.1,0.2-0.1,0.5-0.1,0.7v4.4
		h-2.6v-4.4c0-0.1,0-0.3,0-0.5c0-0.2-0.1-0.4-0.1-0.6c-0.1-0.2-0.2-0.4-0.3-0.5c-0.2-0.1-0.4-0.2-0.7-0.2c-0.3,0-0.6,0.1-0.8,0.2
		c-0.2,0.1-0.4,0.3-0.5,0.5c-0.1,0.2-0.2,0.4-0.2,0.7c0,0.3-0.1,0.5-0.1,0.8v4.1h-2.6V25.9z"/>
	<path class="st3" d="M131.9,32.8c-0.4,0.5-0.9,0.9-1.6,1.2c-0.6,0.3-1.3,0.4-1.9,0.4c-0.6,0-1.2-0.1-1.8-0.3
		c-0.6-0.2-1.1-0.5-1.5-0.9c-0.4-0.4-0.7-0.8-1-1.4c-0.2-0.5-0.4-1.1-0.4-1.8s0.1-1.3,0.4-1.8c0.2-0.5,0.6-1,1-1.4
		c0.4-0.4,0.9-0.7,1.5-0.9c0.6-0.2,1.2-0.3,1.8-0.3c0.6,0,1.1,0.1,1.6,0.3c0.5,0.2,0.9,0.5,1.2,0.9c0.3,0.4,0.6,0.8,0.8,1.4
		c0.2,0.5,0.3,1.1,0.3,1.8v0.8h-5.9c0.1,0.5,0.3,0.9,0.7,1.2c0.3,0.3,0.8,0.4,1.3,0.4c0.4,0,0.8-0.1,1.1-0.3
		c0.3-0.2,0.5-0.4,0.8-0.7L131.9,32.8z M129.7,29.1c0-0.4-0.1-0.8-0.4-1.1c-0.3-0.3-0.7-0.5-1.1-0.5c-0.3,0-0.5,0-0.8,0.1
		c-0.2,0.1-0.4,0.2-0.6,0.4c-0.2,0.1-0.3,0.3-0.4,0.5c-0.1,0.2-0.1,0.4-0.1,0.6H129.7z"/>
</g>
</svg>
