<svg xmlns="http://www.w3.org/2000/svg" xmlns:xlink="http://www.w3.org/1999/xlink" width="73" height="47" viewBox="0 0 73 47">
    <defs>
        <path id="a" d="M.242.351h14.303v14.304H.242z"/>
    </defs>
    <g fill="none" fill-rule="evenodd">
        <path fill="#B20D1D" d="M5.037.53L42.56.457c2.485-.005 4.508 1.996 4.515 4.47l.087 29.292-46.527.092L.548 5.02C.541 2.545 2.551.537 5.037.53"/>
        <path fill="#30485F" d="M72.275 34.131l.012 5.06-71.648.177-.013-5.06 7.478-.018a10.24 10.24 0 0 1 8.944-5.277c3.836-.009 7.2 2.102 8.969 5.233l24.061-.06a10.213 10.213 0 0 1 8.927-5.276c3.85-.01 7.2 2.102 8.97 5.232l4.3-.01z"/>
        <path fill="#3E586C" d="M66.182 39.175a7.15 7.15 0 1 1-14.3.035 7.15 7.15 0 1 1 14.3-.035"/>
        <path fill="#ADB3BB" d="M61.905 39.185a2.873 2.873 0 1 1-5.746.012 2.873 2.873 0 0 1 5.746-.012"/>
        <g transform="rotate(5 -351.86 134.184)">
            <mask id="b" fill="#fff">
                <use xlink:href="#a"/>
            </mask>
            <path fill="#3E586C" d="M14.516 6.862a7.153 7.153 0 0 1-6.482 7.764A7.15 7.15 0 0 1 .27 8.144a7.151 7.151 0 1 1 14.245-1.282" mask="url(#b)"/>
        </g>
        <path fill="#ADB3BB" d="M19.939 39.29a2.87 2.87 0 0 1-2.865 2.878 2.872 2.872 0 1 1-.014-5.744 2.871 2.871 0 0 1 2.879 2.865"/>
        <path fill="#FFF" d="M5.453 21.84c15.732-.039 28.62-4.899 40.57-4.928.284 0 .562.007.834.007 2.175-.006 2.153-2.552-.006-2.137-7.345 1.413-17.169 4.507-26.584 4.53-7.417.019-13.744-1.006-19.68-3.174l.002 5.402c1.512.19 3.14.305 4.864.3"/>
        <path fill="#FFF" d="M61.628 7.344l-14.795.037.066 26.816 24.241-.06-.03-12.07-2.851-9.764a6.89 6.89 0 0 0-6.631-4.959"/>
        <path fill="#85DAFF" d="M67.57 21.952l-2.54-8.704a3.547 3.547 0 0 0-3.394-2.536l-11.427.028.027 11.255 17.335-.043z"/>
        <path fill="#BDC3CA" d="M67.574 21.947l-17.343.044-.029-11.255z"/>
        <path fill="#DBDBDB" d="M67.57 21.952l-2.54-8.704a3.547 3.547 0 0 0-3.394-2.536l-11.427.028L67.57 21.952z"/>
    </g>
</svg>
