<?xml version="1.0" encoding="utf-8"?>
<!-- Generator: Adobe Illustrator 23.0.1, SVG Export Plug-In . SVG Version: 6.00 Build 0)  -->
<svg version="1.1" id="Layer_1" xmlns="http://www.w3.org/2000/svg" xmlns:xlink="http://www.w3.org/1999/xlink" x="0px" y="0px"
	 viewBox="0 0 177 40" style="enable-background:new 0 0 177 40;" xml:space="preserve">
<style type="text/css">
	.st0{fill:#FFFFFF;}
</style>
<g>
	<path class="st0" d="M0,4h8.5l12.1,19.7h0.1V4h6.3v28.4h-8.2L6.3,12.2H6.3v20.2H0V4z"/>
	<path class="st0" d="M44.2,30L44.2,30c-0.7,1-1.6,1.8-2.7,2.2c-1.1,0.5-2.3,0.7-3.5,0.7c-0.9,0-1.8-0.1-2.6-0.4
		c-0.8-0.3-1.6-0.6-2.2-1.1c-0.6-0.5-1.1-1.1-1.5-1.9c-0.4-0.7-0.6-1.6-0.6-2.6c0-1.1,0.2-2.1,0.6-2.8c0.4-0.8,1-1.4,1.7-1.9
		c0.7-0.5,1.5-0.9,2.4-1.2c0.9-0.3,1.9-0.5,2.8-0.6c1-0.1,2-0.2,2.9-0.2c1,0,1.9,0,2.7,0c0-1.1-0.4-1.9-1.1-2.5
		c-0.8-0.6-1.7-0.9-2.7-0.9c-1,0-1.9,0.2-2.7,0.6c-0.8,0.4-1.5,1-2.2,1.7l-3.2-3.3c1.1-1,2.4-1.8,3.9-2.3c1.5-0.5,3-0.8,4.7-0.8
		c1.8,0,3.2,0.2,4.4,0.7c1.1,0.4,2,1.1,2.7,1.9c0.7,0.9,1.2,1.9,1.4,3.1c0.3,1.2,0.4,2.7,0.4,4.3v9.9h-5.5V30z M42.7,23.9
		c-0.5,0-1,0-1.7,0.1c-0.7,0-1.3,0.2-2,0.3c-0.6,0.2-1.2,0.5-1.6,0.8c-0.4,0.4-0.7,0.9-0.7,1.6c0,0.7,0.3,1.3,0.9,1.6
		c0.6,0.3,1.3,0.5,1.9,0.5c0.6,0,1.2-0.1,1.7-0.2c0.5-0.2,1-0.4,1.5-0.7c0.4-0.3,0.8-0.7,1-1.1c0.3-0.5,0.4-1,0.4-1.6v-1.3H42.7z"/>
	<path class="st0" d="M53.5,12.9h5.8v2.6h0.1c0.2-0.4,0.5-0.7,0.8-1.1c0.3-0.4,0.8-0.7,1.2-1c0.5-0.3,1-0.5,1.6-0.7
		c0.6-0.2,1.3-0.3,2-0.3c1.4,0,2.6,0.3,3.6,0.8c1.1,0.6,1.9,1.4,2.4,2.6c0.7-1.3,1.5-2.2,2.5-2.7c1-0.5,2.2-0.8,3.6-0.8
		c1.3,0,2.4,0.2,3.3,0.7c0.9,0.4,1.6,1,2.1,1.8c0.5,0.8,0.9,1.7,1.1,2.7c0.2,1,0.3,2.1,0.3,3.3v11.5h-6V21.1c0-0.9-0.2-1.7-0.6-2.3
		c-0.4-0.7-1.1-1-2.1-1c-0.7,0-1.3,0.1-1.7,0.3c-0.5,0.2-0.8,0.5-1.1,0.9c-0.3,0.4-0.5,0.9-0.6,1.4c-0.1,0.5-0.2,1.1-0.2,1.7v10.3
		h-6V22.1c0-0.3,0-0.8,0-1.3c0-0.5-0.1-1-0.3-1.4c-0.2-0.5-0.4-0.8-0.8-1.2c-0.4-0.3-0.9-0.5-1.6-0.5c-0.8,0-1.4,0.1-1.9,0.4
		c-0.5,0.3-0.8,0.7-1.1,1.1c-0.3,0.5-0.4,1-0.5,1.6c-0.1,0.6-0.1,1.2-0.1,1.8v9.7h-6V12.9z"/>
	<path class="st0" d="M106.8,29.1c-1,1.2-2.2,2.2-3.6,2.8c-1.5,0.7-3,1-4.6,1c-1.5,0-2.9-0.2-4.2-0.7c-1.3-0.5-2.5-1.2-3.4-2.1
		c-1-0.9-1.7-2-2.3-3.2c-0.6-1.3-0.8-2.7-0.8-4.2c0-1.6,0.3-3,0.8-4.2c0.6-1.3,1.3-2.3,2.3-3.2c1-0.9,2.1-1.6,3.4-2.1
		c1.3-0.5,2.7-0.7,4.2-0.7c1.4,0,2.7,0.2,3.8,0.7c1.1,0.5,2.1,1.2,2.9,2.1c0.8,0.9,1.4,2,1.8,3.2c0.4,1.3,0.6,2.7,0.6,4.2v1.9h-14
		c0.2,1.1,0.8,2.1,1.6,2.7c0.8,0.7,1.8,1,3,1c1,0,1.8-0.2,2.5-0.7c0.7-0.4,1.3-1,1.8-1.7L106.8,29.1z M101.7,20.5c0-1-0.3-1.9-1-2.6
		c-0.7-0.7-1.6-1.1-2.7-1.1c-0.7,0-1.3,0.1-1.8,0.3c-0.5,0.2-0.9,0.5-1.3,0.8c-0.4,0.3-0.6,0.7-0.8,1.2c-0.2,0.4-0.3,0.9-0.3,1.4
		H101.7z"/>
</g>
<path class="st0" d="M114.3,18c0.2,0.3,0.5,0.5,0.8,0.7c0.3,0.2,0.6,0.3,1.1,0.3c0.2,0,0.4,0,0.6-0.1c0.2,0,0.4-0.1,0.5-0.2
	c0.2-0.1,0.3-0.2,0.4-0.4c0.1-0.1,0.1-0.3,0.1-0.5c0-0.2,0-0.4-0.1-0.5c-0.1-0.1-0.2-0.2-0.4-0.3c-0.1-0.1-0.3-0.2-0.5-0.2
	c-0.2-0.1-0.4-0.1-0.6-0.1c-0.3-0.1-0.7-0.2-1-0.3c-0.3-0.1-0.6-0.2-0.8-0.4c-0.2-0.2-0.4-0.3-0.6-0.6c-0.1-0.2-0.2-0.5-0.2-0.9
	c0-0.4,0.1-0.7,0.2-0.9c0.2-0.3,0.4-0.5,0.6-0.7c0.3-0.2,0.6-0.3,0.9-0.4c0.3-0.1,0.7-0.1,1-0.1c0.5,0,1,0.1,1.4,0.3
	c0.4,0.2,0.8,0.5,1,1l-1,0.7c-0.2-0.3-0.4-0.5-0.6-0.6c-0.3-0.2-0.6-0.2-0.9-0.2c-0.2,0-0.3,0-0.5,0.1c-0.2,0-0.3,0.1-0.5,0.2
	c-0.1,0.1-0.2,0.2-0.3,0.3c-0.1,0.1-0.1,0.3-0.1,0.4c0,0.2,0.1,0.3,0.1,0.4c0.1,0.1,0.2,0.2,0.4,0.3c0.2,0.1,0.4,0.2,0.6,0.2
	c0.2,0.1,0.5,0.1,0.7,0.2c0.3,0.1,0.6,0.1,0.9,0.2c0.3,0.1,0.5,0.2,0.8,0.4c0.2,0.2,0.4,0.4,0.5,0.6c0.1,0.2,0.2,0.6,0.2,0.9
	c0,0.4-0.1,0.8-0.2,1.1c-0.2,0.3-0.4,0.5-0.7,0.7c-0.3,0.2-0.6,0.3-0.9,0.4c-0.3,0.1-0.7,0.1-1.1,0.1c-0.6,0-1.2-0.1-1.6-0.3
	s-0.9-0.5-1.2-1.1L114.3,18z"/>
<path class="st0" d="M127.3,18.6c-0.4,0.6-0.9,1-1.4,1.2c-0.5,0.2-1.1,0.3-1.8,0.3c-0.6,0-1.1-0.1-1.5-0.3c-0.5-0.2-0.8-0.5-1.2-0.8
	c-0.3-0.3-0.6-0.7-0.7-1.2c-0.2-0.5-0.3-1-0.3-1.5c0-0.6,0.1-1.1,0.3-1.6c0.2-0.5,0.4-0.9,0.8-1.2c0.3-0.3,0.7-0.6,1.2-0.8
	c0.5-0.2,1-0.3,1.5-0.3c0.5,0,1,0.1,1.4,0.3c0.4,0.2,0.8,0.4,1.1,0.7c0.3,0.3,0.5,0.7,0.7,1.2c0.2,0.5,0.2,1,0.2,1.6v0.4h-5.9
	c0,0.3,0.1,0.6,0.2,0.9c0.1,0.3,0.3,0.5,0.5,0.7c0.2,0.2,0.5,0.4,0.7,0.5c0.3,0.1,0.6,0.2,0.9,0.2c0.5,0,1-0.1,1.3-0.3
	c0.4-0.2,0.7-0.5,1-0.8L127.3,18.6z M126.3,15.7c0-0.6-0.2-1.1-0.6-1.5c-0.4-0.4-0.9-0.6-1.6-0.6c-0.7,0-1.2,0.2-1.6,0.6
	c-0.4,0.4-0.7,0.9-0.7,1.5H126.3z"/>
<path class="st0" d="M134.6,14.5c-0.3-0.3-0.5-0.5-0.8-0.7c-0.3-0.1-0.6-0.2-1-0.2c-0.4,0-0.8,0.1-1.1,0.2c-0.3,0.1-0.6,0.3-0.8,0.6
	c-0.2,0.2-0.4,0.5-0.5,0.9c-0.1,0.3-0.2,0.7-0.2,1.1c0,0.4,0.1,0.7,0.2,1.1c0.1,0.3,0.3,0.6,0.5,0.9c0.2,0.2,0.5,0.4,0.8,0.6
	c0.3,0.1,0.6,0.2,1,0.2c0.8,0,1.4-0.3,1.9-0.9l0.9,0.9c-0.4,0.4-0.8,0.7-1.2,0.9c-0.5,0.2-1,0.3-1.5,0.3c-0.6,0-1.1-0.1-1.5-0.3
	c-0.5-0.2-0.9-0.5-1.2-0.8c-0.3-0.3-0.6-0.7-0.8-1.2c-0.2-0.5-0.3-1-0.3-1.5c0-0.6,0.1-1.1,0.3-1.5c0.2-0.5,0.4-0.9,0.8-1.2
	c0.3-0.3,0.7-0.6,1.2-0.8c0.5-0.2,1-0.3,1.5-0.3c0.5,0,1.1,0.1,1.5,0.3c0.5,0.2,0.9,0.5,1.3,0.9L134.6,14.5z"/>
<path class="st0" d="M136.5,16.3c0-0.6,0.1-1.1,0.3-1.6c0.2-0.5,0.5-0.9,0.8-1.2c0.3-0.3,0.8-0.6,1.2-0.8s1-0.3,1.6-0.3
	s1.1,0.1,1.6,0.3c0.5,0.2,0.9,0.4,1.2,0.8c0.3,0.3,0.6,0.7,0.8,1.2c0.2,0.5,0.3,1,0.3,1.6c0,0.6-0.1,1.1-0.3,1.6
	c-0.2,0.5-0.5,0.9-0.8,1.2c-0.3,0.3-0.8,0.6-1.2,0.8c-0.5,0.2-1,0.3-1.6,0.3s-1.1-0.1-1.6-0.3c-0.5-0.2-0.9-0.4-1.2-0.8
	c-0.3-0.3-0.6-0.7-0.8-1.2C136.6,17.4,136.5,16.9,136.5,16.3z M137.9,16.3c0,0.4,0.1,0.7,0.2,1.1c0.1,0.3,0.3,0.6,0.5,0.9
	c0.2,0.2,0.5,0.4,0.8,0.6c0.3,0.1,0.7,0.2,1.1,0.2c0.4,0,0.8-0.1,1.1-0.2c0.3-0.1,0.6-0.3,0.8-0.6c0.2-0.2,0.4-0.5,0.5-0.9
	c0.1-0.3,0.2-0.7,0.2-1.1c0-0.4-0.1-0.7-0.2-1.1c-0.1-0.3-0.3-0.6-0.5-0.9c-0.2-0.2-0.5-0.4-0.8-0.6c-0.3-0.1-0.7-0.2-1.1-0.2
	c-0.4,0-0.8,0.1-1.1,0.2c-0.3,0.1-0.6,0.3-0.8,0.6c-0.2,0.2-0.4,0.5-0.5,0.9C137.9,15.6,137.9,15.9,137.9,16.3z"/>
<path class="st0" d="M146.2,14.4c0-0.3,0-0.6,0-0.9c0-0.3,0-0.6,0-0.8h1.2c0,0.2,0,0.4,0,0.6c0,0.2,0,0.4,0,0.6h0
	c0.1-0.2,0.2-0.3,0.4-0.5c0.2-0.2,0.3-0.3,0.5-0.4c0.2-0.1,0.4-0.2,0.7-0.3c0.3-0.1,0.5-0.1,0.8-0.1c0.5,0,0.9,0.1,1.2,0.2
	c0.3,0.1,0.6,0.3,0.9,0.6c0.2,0.3,0.4,0.6,0.5,0.9c0.1,0.4,0.2,0.8,0.2,1.2V20h-1.2v-4.4c0-0.6-0.1-1.1-0.4-1.5
	c-0.3-0.4-0.7-0.5-1.3-0.5c-0.4,0-0.7,0.1-1,0.2c-0.3,0.1-0.5,0.3-0.7,0.6c-0.2,0.2-0.3,0.5-0.4,0.9c-0.1,0.3-0.1,0.7-0.1,1.1V20
	h-1.2V14.4z"/>
<path class="st0" d="M161,18.7L161,18.7c-0.3,0.4-0.6,0.8-1.1,1.1c-0.5,0.3-1.1,0.4-1.7,0.4c-0.5,0-1-0.1-1.4-0.3
	c-0.4-0.2-0.8-0.5-1.2-0.8c-0.3-0.3-0.6-0.7-0.8-1.2c-0.2-0.5-0.3-1-0.3-1.5c0-0.6,0.1-1.1,0.3-1.5c0.2-0.5,0.4-0.9,0.8-1.2
	c0.3-0.3,0.7-0.6,1.2-0.8c0.5-0.2,1-0.3,1.6-0.3c0.5,0,1,0.1,1.5,0.3c0.4,0.2,0.8,0.5,1.2,0.9h0V8.2h1.2V20H161V18.7z M161,16.3
	c0-0.4-0.1-0.7-0.2-1.1c-0.1-0.3-0.3-0.6-0.5-0.9c-0.2-0.2-0.5-0.4-0.8-0.6c-0.3-0.1-0.7-0.2-1.1-0.2c-0.4,0-0.8,0.1-1.1,0.2
	c-0.3,0.1-0.6,0.3-0.8,0.6c-0.2,0.2-0.4,0.5-0.5,0.9c-0.1,0.3-0.2,0.7-0.2,1.1c0,0.4,0.1,0.7,0.2,1.1c0.1,0.3,0.3,0.6,0.5,0.9
	c0.2,0.2,0.5,0.4,0.8,0.6c0.3,0.1,0.7,0.2,1.1,0.2c0.4,0,0.8-0.1,1.1-0.2c0.3-0.1,0.6-0.3,0.8-0.6c0.2-0.2,0.4-0.5,0.5-0.9
	C160.9,17.1,161,16.7,161,16.3z"/>
<path class="st0" d="M119.3,26.8c-0.3-0.3-0.5-0.5-0.8-0.7c-0.3-0.1-0.6-0.2-1-0.2c-0.4,0-0.8,0.1-1.1,0.2c-0.3,0.1-0.6,0.3-0.8,0.6
	c-0.2,0.2-0.4,0.5-0.5,0.9c-0.1,0.3-0.2,0.7-0.2,1.1s0.1,0.7,0.2,1.1c0.1,0.3,0.3,0.6,0.5,0.9c0.2,0.2,0.5,0.4,0.8,0.6
	c0.3,0.1,0.6,0.2,1,0.2c0.8,0,1.4-0.3,1.9-0.9l0.9,0.9c-0.4,0.4-0.8,0.7-1.2,0.9c-0.5,0.2-1,0.3-1.5,0.3c-0.6,0-1.1-0.1-1.5-0.3
	c-0.5-0.2-0.9-0.5-1.2-0.8c-0.3-0.3-0.6-0.7-0.8-1.2c-0.2-0.5-0.3-1-0.3-1.5c0-0.6,0.1-1.1,0.3-1.5c0.2-0.5,0.4-0.9,0.8-1.2
	c0.3-0.3,0.7-0.6,1.2-0.8c0.5-0.2,1-0.3,1.5-0.3c0.5,0,1.1,0.1,1.5,0.3c0.5,0.2,0.9,0.5,1.3,0.9L119.3,26.8z"/>
<path class="st0" d="M121.2,28.6c0-0.6,0.1-1.1,0.3-1.6c0.2-0.5,0.5-0.9,0.8-1.2c0.3-0.3,0.8-0.6,1.2-0.8c0.5-0.2,1-0.3,1.6-0.3
	s1.1,0.1,1.6,0.3c0.5,0.2,0.9,0.4,1.2,0.8c0.3,0.3,0.6,0.7,0.8,1.2c0.2,0.5,0.3,1,0.3,1.6c0,0.6-0.1,1.1-0.3,1.6
	c-0.2,0.5-0.5,0.9-0.8,1.2c-0.3,0.3-0.8,0.6-1.2,0.8c-0.5,0.2-1,0.3-1.6,0.3s-1.1-0.1-1.6-0.3c-0.5-0.2-0.9-0.4-1.2-0.8
	c-0.3-0.3-0.6-0.7-0.8-1.2C121.3,29.7,121.2,29.2,121.2,28.6z M122.5,28.6c0,0.4,0.1,0.7,0.2,1.1s0.3,0.6,0.5,0.9
	c0.2,0.2,0.5,0.4,0.8,0.6c0.3,0.1,0.7,0.2,1.1,0.2c0.4,0,0.8-0.1,1.1-0.2c0.3-0.1,0.6-0.3,0.8-0.6c0.2-0.2,0.4-0.5,0.5-0.9
	c0.1-0.3,0.2-0.7,0.2-1.1c0-0.4-0.1-0.7-0.2-1.1c-0.1-0.3-0.3-0.6-0.5-0.9c-0.2-0.2-0.5-0.4-0.8-0.6c-0.3-0.1-0.7-0.2-1.1-0.2
	c-0.4,0-0.8,0.1-1.1,0.2c-0.3,0.1-0.6,0.3-0.8,0.6c-0.2,0.2-0.4,0.5-0.5,0.9C122.6,27.8,122.5,28.2,122.5,28.6z"/>
<path class="st0" d="M130.9,26.7c0-0.3,0-0.6,0-0.9c0-0.3,0-0.6,0-0.8h1.2c0,0.2,0,0.4,0,0.6c0,0.2,0,0.4,0,0.6h0
	c0.1-0.2,0.2-0.3,0.4-0.5c0.2-0.2,0.3-0.3,0.5-0.4c0.2-0.1,0.4-0.2,0.7-0.3c0.3-0.1,0.5-0.1,0.8-0.1c0.4,0,0.7,0,1,0.1
	c0.3,0.1,0.5,0.2,0.7,0.4c0.2,0.1,0.3,0.3,0.4,0.5c0.1,0.2,0.2,0.3,0.2,0.4c0.3-0.4,0.6-0.8,0.9-1c0.4-0.2,0.8-0.4,1.4-0.4
	c0.5,0,1,0.1,1.3,0.2c0.4,0.1,0.6,0.3,0.9,0.6c0.2,0.3,0.4,0.6,0.5,1c0.1,0.4,0.1,0.8,0.1,1.3v4.4h-1.2v-4.4c0-0.2,0-0.5-0.1-0.7
	c-0.1-0.2-0.1-0.5-0.3-0.6c-0.1-0.2-0.3-0.3-0.5-0.5c-0.2-0.1-0.5-0.2-0.9-0.2c-0.3,0-0.5,0.1-0.7,0.2c-0.2,0.1-0.4,0.3-0.6,0.4
	c-0.2,0.2-0.3,0.4-0.4,0.7c-0.1,0.3-0.1,0.6-0.1,0.9v4.2h-1.2v-4.1c0-0.8-0.1-1.4-0.3-1.7c-0.2-0.3-0.6-0.5-1.1-0.5
	c-0.4,0-0.7,0.1-1,0.2c-0.3,0.1-0.5,0.3-0.7,0.6c-0.2,0.2-0.3,0.5-0.4,0.9c-0.1,0.3-0.1,0.7-0.1,1.1v3.6h-1.2V26.7z"/>
<path class="st0" d="M144.1,24.9h1.2V26h0c0.3-0.4,0.7-0.7,1.2-0.9c0.4-0.2,0.9-0.3,1.5-0.3c0.6,0,1.1,0.1,1.6,0.3
	c0.5,0.2,0.9,0.5,1.2,0.8c0.3,0.3,0.6,0.7,0.8,1.2c0.2,0.5,0.3,1,0.3,1.5c0,0.6-0.1,1.1-0.3,1.5c-0.2,0.5-0.4,0.9-0.8,1.2
	c-0.3,0.3-0.7,0.6-1.2,0.8c-0.4,0.2-0.9,0.3-1.4,0.3c-0.7,0-1.2-0.1-1.7-0.4c-0.5-0.3-0.9-0.6-1.1-1.1h0v4.9h-1.2V24.9z M145.4,28.6
	c0,0.4,0.1,0.7,0.2,1.1c0.1,0.3,0.3,0.6,0.5,0.9c0.2,0.2,0.5,0.4,0.8,0.6c0.3,0.1,0.7,0.2,1.1,0.2c0.4,0,0.8-0.1,1.1-0.2
	c0.3-0.1,0.6-0.3,0.8-0.6c0.2-0.2,0.4-0.5,0.5-0.9c0.1-0.3,0.2-0.7,0.2-1.1c0-0.4-0.1-0.7-0.2-1.1c-0.1-0.3-0.3-0.6-0.5-0.9
	c-0.2-0.2-0.5-0.4-0.8-0.6c-0.3-0.1-0.7-0.2-1.1-0.2c-0.4,0-0.8,0.1-1.1,0.2c-0.3,0.1-0.6,0.3-0.8,0.6c-0.2,0.2-0.4,0.5-0.5,0.9
	C145.4,27.8,145.4,28.2,145.4,28.6z"/>
<path class="st0" d="M153.6,25.9c0.4-0.4,0.8-0.7,1.3-0.8c0.5-0.2,1-0.3,1.6-0.3c1.1,0,1.9,0.3,2.3,0.8c0.5,0.5,0.7,1.3,0.7,2.3V31
	c0,0.2,0,0.4,0,0.6c0,0.2,0,0.4,0.1,0.6h-1.2c0-0.2-0.1-0.4-0.1-0.6c0-0.2,0-0.4,0-0.5h0c-0.2,0.4-0.6,0.7-1,0.9
	c-0.4,0.2-0.9,0.4-1.4,0.4c-0.4,0-0.7,0-1.1-0.1c-0.3-0.1-0.6-0.2-0.9-0.4c-0.2-0.2-0.4-0.4-0.6-0.7c-0.1-0.3-0.2-0.6-0.2-0.9
	c0-0.6,0.2-1.1,0.5-1.4c0.3-0.3,0.7-0.6,1.2-0.8c0.5-0.2,1-0.3,1.5-0.3c0.5,0,1-0.1,1.5-0.1h0.5v-0.2c0-0.5-0.2-0.9-0.5-1.2
	c-0.3-0.3-0.8-0.4-1.3-0.4c-0.4,0-0.8,0.1-1.2,0.2c-0.4,0.1-0.7,0.3-1,0.6L153.6,25.9z M157.2,28.7c-0.8,0-1.4,0.1-1.9,0.3
	c-0.5,0.2-0.7,0.6-0.7,1.1c0,0.5,0.2,0.8,0.5,1c0.3,0.2,0.7,0.3,1.1,0.3c0.4,0,0.7-0.1,0.9-0.2c0.3-0.1,0.5-0.3,0.7-0.5
	c0.2-0.2,0.3-0.4,0.4-0.7c0.1-0.3,0.1-0.5,0.2-0.9v-0.5H157.2z"/>
<path class="st0" d="M161.8,26.7c0-0.3,0-0.6,0-0.9c0-0.3,0-0.6,0-0.8h1.2c0,0.2,0,0.4,0,0.6c0,0.2,0,0.4,0,0.6h0
	c0.1-0.2,0.2-0.3,0.4-0.5c0.2-0.2,0.3-0.3,0.5-0.4c0.2-0.1,0.4-0.2,0.7-0.3c0.3-0.1,0.5-0.1,0.8-0.1c0.5,0,0.9,0.1,1.2,0.2
	c0.3,0.1,0.6,0.3,0.9,0.6c0.2,0.3,0.4,0.6,0.5,0.9c0.1,0.4,0.2,0.8,0.2,1.2v4.5H167v-4.4c0-0.6-0.1-1.1-0.4-1.5
	c-0.3-0.4-0.7-0.5-1.3-0.5c-0.4,0-0.7,0.1-1,0.2c-0.3,0.1-0.5,0.3-0.7,0.6c-0.2,0.2-0.3,0.5-0.4,0.9c-0.1,0.3-0.1,0.7-0.1,1.1v3.6
	h-1.2V26.7z"/>
<path class="st0" d="M173.2,33.9c-0.1,0.3-0.3,0.6-0.4,0.8c-0.1,0.3-0.3,0.5-0.5,0.7s-0.4,0.3-0.7,0.4c-0.3,0.1-0.6,0.1-0.9,0.1
	c-0.2,0-0.4,0-0.6,0s-0.4-0.1-0.5-0.2l0.2-1.1c0.1,0.1,0.3,0.1,0.4,0.1c0.1,0,0.3,0,0.5,0c0.4,0,0.7-0.1,0.9-0.3
	c0.2-0.2,0.3-0.5,0.5-0.9l0.5-1.4l-3-7.3h1.4l2.3,5.7h0l2.2-5.7h1.3L173.2,33.9z"/>
</svg>
