<svg xmlns="http://www.w3.org/2000/svg" width="40" height="40" viewBox="0 0 40 40">
    <path fill="#FFF" fill-rule="evenodd" d="M13.867 0h12.266C37.333 0 40 2.667 40 13.867v12.266C40 37.333 37.333 40 26.133 40H13.867C2.667 40 0 37.333 0 26.133V13.867C0 2.667 2.667 0 13.867 0zM32.76 13.78c.186-.617 0-1.072-.882-1.072h-2.917c-.741 0-1.083.393-1.268.825 0 0-1.484 3.616-3.585 5.964-.68.68-.989.896-1.36.896-.185 0-.453-.216-.453-.834V13.78c0-.741-.216-1.072-.834-1.072h-4.583c-.463 0-.742.345-.742.67 0 .704 1.05.866 1.159 2.843v4.295c0 .942-.17 1.113-.541 1.113-.989 0-3.394-3.631-4.82-7.787-.28-.807-.56-1.134-1.306-1.134H7.711c-.833 0-1 .393-1 .825 0 .773.99 4.604 4.604 9.672 2.41 3.46 5.806 5.337 8.896 5.337 1.854 0 2.084-.417 2.084-1.135v-2.615c0-.834.175-1 .762-1 .433 0 1.175.216 2.905 1.885 1.978 1.977 2.304 2.865 3.416 2.865h2.917c.833 0 1.25-.417 1.01-1.24-.264-.819-1.208-2.008-2.46-3.417-.68-.804-1.7-1.669-2.01-2.101-.432-.556-.308-.804 0-1.298 0 0 3.554-5.006 3.925-6.706z" opacity=".898"/>
</svg>
